<svg width="48" height="48" viewBox="0 0 48 48" fill="none" xmlns="http://www.w3.org/2000/svg">
<path fill-rule="evenodd" clip-rule="evenodd" d="M25.4506 25.4506C25.3032 25.9748 25.0874 26.4958 24.811 26.8609C26.788 26.7671 28.394 26.3436 30 25.92C31.82 25.44 33.6401 24.96 36 24.96C40.7199 24.96 48 27.36 48 27.36V20.64C48 20.64 40.7199 23.04 36 23.04C33.6401 23.04 31.82 22.56 30 22.08C28.394 21.6564 26.788 21.2329 24.811 21.1391C25.0874 21.5042 25.3032 22.0252 25.4506 22.5494C25.9748 22.6968 26.4959 22.9126 26.8609 23.189C27.1644 23.4189 27.36 23.6907 27.36 24C27.36 24.3093 27.1644 24.5811 26.8609 24.811C26.4959 25.0874 25.9748 25.3032 25.4506 25.4506Z" fill="black"/>
<path fill-rule="evenodd" clip-rule="evenodd" d="M20.64 0C20.64 0 23.04 7.28009 23.04 12C23.04 14.36 22.56 16.18 22.08 18C21.6565 19.606 21.2329 21.212 21.1391 23.189C21.5042 22.9126 22.0252 22.6968 22.5494 22.5494C22.6968 22.0252 22.9126 21.5042 23.1891 21.1391C23.4189 20.8356 23.6907 20.64 24 20.64C24.3093 20.64 24.5811 20.8356 24.811 21.1391C25.0874 21.5042 25.3032 22.0252 25.4506 22.5494C25.9748 22.6968 26.4959 22.9126 26.8609 23.189C26.7671 21.212 26.3436 19.606 25.92 18C25.44 16.18 24.96 14.36 24.96 12C24.96 7.28009 27.36 0 27.36 0H20.64ZM26.8609 24.811C26.4959 25.0874 25.9748 25.3032 25.4506 25.4506C25.3032 25.9748 25.0874 26.4958 24.811 26.8609C24.5811 27.1643 24.3093 27.36 24 27.36C23.6907 27.36 23.4189 27.1643 23.1891 26.8609C22.9126 26.4958 22.6968 25.9748 22.5494 25.4506C22.0252 25.3032 21.5042 25.0874 21.1391 24.811C21.2329 26.788 21.6565 28.394 22.08 30C22.56 31.82 23.04 33.64 23.04 36C23.04 40.7199 20.64 48 20.64 48H27.36C27.36 48 24.96 40.7199 24.96 36C24.96 33.64 25.44 31.82 25.92 30C26.3436 28.394 26.7671 26.788 26.8609 24.811Z" fill="black"/>
<path d="M22.32 24C22.32 23.6209 22.3992 23.0835 22.5494 22.5494C22.0252 22.6968 21.5042 22.9126 21.1391 23.189C21.1267 23.4525 21.12 23.7225 21.12 24C21.12 24.2775 21.1267 24.5475 21.1391 24.811C21.5042 25.0874 22.0252 25.3032 22.5494 25.4506C22.3992 24.9165 22.32 24.3791 22.32 24Z" fill="black"/>
</svg>
