<svg width="200" height="200" viewBox="0 0 200 200" fill="none" xmlns="http://www.w3.org/2000/svg">
<g clip-path="url(#clip0_8_4)">
<path d="M100 200C100 186.868 97.4134 173.864 92.388 161.732C87.3625 149.599 79.9965 138.575 70.7107 129.289C61.4248 120.003 50.4009 112.638 38.2683 107.612C26.1358 102.587 13.1322 100 0 100" stroke="white" stroke-opacity="0.8" stroke-width="32"/>
<path d="M200 100C186.868 100 173.864 102.587 161.732 107.612C149.599 112.638 138.575 120.003 129.289 129.289C120.003 138.575 112.638 149.599 107.612 161.732C102.587 173.864 100 186.868 100 200" stroke="white" stroke-opacity="0.8" stroke-width="32"/>
<path d="M100 0C100 13.1322 102.587 26.1358 107.612 38.2683C112.638 50.4009 120.003 61.4248 129.289 70.7107C138.575 79.9965 149.599 87.3625 161.732 92.388C173.864 97.4134 186.868 100 200 100" stroke="white" stroke-opacity="0.8" stroke-width="32"/>
<path d="M0 100C13.1322 100 26.1358 97.4134 38.2683 92.388C50.4009 87.3625 61.4248 79.9965 70.7107 70.7107C79.9965 61.4248 87.3625 50.4009 92.388 38.2683C97.4134 26.1358 100 13.1322 100 0" stroke="white" stroke-opacity="0.8" stroke-width="32"/>
</g>
<defs>
<clipPath id="clip0_8_4">
<rect width="200" height="200" fill="white"/>
</clipPath>
</defs>
</svg>
