<svg width="200" height="200" viewBox="0 0 200 200" fill="none" xmlns="http://www.w3.org/2000/svg">
<g clip-path="url(#clip0_3_433)">
<path fill-rule="evenodd" clip-rule="evenodd" d="M0 114C0 114 30.3337 104 50 104C59.8332 104 67.4166 106 75 108C81.6917 109.765 88.3835 111.53 96.621 111.92C95.4691 110.399 94.5699 108.228 93.9557 106.044C91.7716 105.43 89.6006 104.531 88.0797 103.379C86.8152 102.421 86 101.289 86 100C86 98.7113 86.8152 97.5788 88.0797 96.621C89.6006 95.4691 91.7716 94.5699 93.9557 93.9557C94.5699 91.7716 95.4691 89.6006 96.621 88.0797C88.3835 88.4703 81.6917 90.2352 75 92C67.4166 94 59.8332 96 50 96C30.3337 96 0 86 0 86V114ZM106.044 106.044C105.43 108.228 104.531 110.399 103.379 111.92C111.617 111.53 118.308 109.765 125 108C132.583 106 140.167 104 150 104C169.666 104 200 114 200 114V86C200 86 169.666 96 150 96C140.167 96 132.583 94 125 92C118.308 90.2352 111.617 88.4703 103.379 88.0797C104.531 89.6006 105.43 91.7716 106.044 93.9557C108.228 94.5699 110.399 95.4691 111.92 96.621C113.185 97.5788 114 98.7113 114 100C114 101.289 113.185 102.421 111.92 103.379C110.399 104.531 108.228 105.43 106.044 106.044Z" fill="black"/>
<path fill-rule="evenodd" clip-rule="evenodd" d="M86 0C86 0 96 30.3337 96 50C96 59.8332 94 67.4166 92 75C90.2352 81.6917 88.4703 88.3835 88.0797 96.621C89.6006 95.4691 91.7716 94.5699 93.9557 93.9557C94.5699 91.7716 95.4691 89.6006 96.621 88.0797C97.5788 86.8152 98.7113 86 100 86C101.289 86 102.421 86.8152 103.379 88.0797C104.531 89.6006 105.43 91.7716 106.044 93.9557C108.228 94.5699 110.399 95.4691 111.92 96.621C111.53 88.3835 109.765 81.6917 108 75C106 67.4166 104 59.8332 104 50C104 30.3337 114 0 114 0H86ZM111.92 103.379C110.399 104.531 108.228 105.43 106.044 106.044C105.43 108.228 104.531 110.399 103.379 111.92C102.421 113.185 101.289 114 100 114C98.7113 114 97.5788 113.185 96.621 111.92C95.4691 110.399 94.5699 108.228 93.9557 106.044C91.7716 105.43 89.6006 104.531 88.0797 103.379C88.4703 111.617 90.2352 118.308 92 125C94 132.583 96 140.167 96 150C96 169.666 86 200 86 200H114C114 200 104 169.666 104 150C104 140.167 106 132.583 108 125C109.765 118.308 111.53 111.617 111.92 103.379Z" fill="black"/>
</g>
<defs>
<clipPath id="clip0_3_433">
<rect width="200" height="200" fill="white"/>
</clipPath>
</defs>
</svg>
