<svg width="200" height="200" viewBox="0 0 200 200" fill="none" xmlns="http://www.w3.org/2000/svg">
<path fill-rule="evenodd" clip-rule="evenodd" d="M106.044 106.044C105.43 108.228 104.531 110.399 103.379 111.92C111.617 111.53 118.308 109.765 125 108C132.583 106 140.167 104 150 104C169.666 104 200 114 200 114V86C200 86 169.666 96 150 96C140.167 96 132.583 94 125 92C118.308 90.2352 111.617 88.4703 103.379 88.0797C104.531 89.6006 105.43 91.7716 106.044 93.9557C108.228 94.5699 110.399 95.4691 111.92 96.621C113.185 97.5788 114 98.7113 114 100C114 101.289 113.185 102.421 111.92 103.379C110.399 104.531 108.228 105.43 106.044 106.044Z" fill="black"/>
<path fill-rule="evenodd" clip-rule="evenodd" d="M111.92 103.379C110.399 104.531 108.228 105.43 106.044 106.044C105.43 108.228 104.531 110.399 103.379 111.92C102.421 113.185 101.289 114 100 114C98.7113 114 97.5788 113.185 96.621 111.92C95.4691 110.399 94.5699 108.228 93.9557 106.044C91.7716 105.43 89.6006 104.531 88.0797 103.379C88.2094 106.113 88.4904 108.677 88.8726 111.127C89.6419 116.059 90.821 120.529 92 125C94 132.583 96 140.167 96 150C96 169.666 86 200 86 200H114C114 200 104 169.666 104 150C104 140.167 106 132.583 108 125C109.765 118.308 111.53 111.617 111.92 103.379Z" fill="black"/>
<path d="M93.9557 93.9557C94.5699 91.7716 95.4691 89.6006 96.621 88.0797C93.8868 88.2094 90 88 89 89C88 90 88.2094 93.8868 88.0797 96.621C89.6006 95.4691 91.7716 94.5699 93.9557 93.9557Z" fill="black"/>
<path d="M93 100C93 98.4206 93.3299 96.1813 93.9557 93.9557C91.7716 94.5699 89.6006 95.4691 88.0797 96.621C88.0277 97.7187 88 98.8438 88 100C88 101.156 88.0277 102.281 88.0797 103.379C89.6006 104.531 91.7716 105.43 93.9557 106.044C93.3299 103.819 93 101.579 93 100Z" fill="black"/>
<path d="M96.621 88.0797C95.4691 89.6006 94.5699 91.7716 93.9557 93.9557C96.1813 93.3299 98.4206 93 100 93C101.579 93 103.819 93.3299 106.044 93.9557C105.43 91.7716 104.531 89.6006 103.379 88.0797C102.281 88.0277 101.156 88 100 88C98.8438 88 97.7187 88.0277 96.621 88.0797Z" fill="black"/>
</svg>
