<svg width="100" height="100" viewBox="0 0 100 100" fill="none" xmlns="http://www.w3.org/2000/svg">
<path fill-rule="evenodd" clip-rule="evenodd" d="M53.0221 53.0221C52.715 54.1142 52.2655 55.1997 51.6895 55.9601C55.8083 55.7648 59.1541 54.8824 62.5 54C66.2917 53 70.0834 52 75 52C84.8332 52 100 57 100 57V43C100 43 84.8332 48 75 48C70.0834 48 66.2917 47 62.5 46C59.1541 45.1176 55.8083 44.2352 51.6895 44.0399C52.2655 44.8003 52.715 45.8858 53.0221 46.9779C54.1142 47.285 55.1997 47.7345 55.9601 48.3105C56.5924 48.7894 57 49.3556 57 50C57 50.6444 56.5924 51.2106 55.9601 51.6895C55.1997 52.2655 54.1142 52.715 53.0221 53.0221Z" fill="black"/>
<path fill-rule="evenodd" clip-rule="evenodd" d="M55.9601 51.6895C55.1997 52.2655 54.1142 52.715 53.0221 53.0221C52.715 54.1142 52.2655 55.1997 51.6895 55.9601C51.2106 56.5924 50.6444 57 50 57C49.3556 57 48.7894 56.5924 48.3105 55.9601C47.7345 55.1997 47.285 54.1142 46.9779 53.0221C45.8858 52.715 44.8003 52.2655 44.0399 51.6895C44.1047 53.0566 44.2452 54.3386 44.4363 55.5637C44.821 58.0294 45.4105 60.2647 46 62.5C47 66.2917 48 70.0834 48 75C48 84.8332 43 100 43 100H57C57 100 52 84.8332 52 75C52 70.0834 53 66.2917 54 62.5C54.8824 59.1541 55.7648 55.8083 55.9601 51.6895Z" fill="black"/>
<path d="M46.9779 46.9779C47.285 45.8858 47.7345 44.8003 48.3105 44.0399C46.9434 44.1047 45 44 44.5 44.5C44 45 44.1047 46.9434 44.0399 48.3105C44.8003 47.7345 45.8858 47.285 46.9779 46.9779Z" fill="black"/>
<path d="M46.5 50C46.5 49.2103 46.665 48.0906 46.9779 46.9779C45.8858 47.285 44.8003 47.7345 44.0399 48.3105C44.0138 48.8593 44 49.4219 44 50C44 50.5781 44.0138 51.1407 44.0399 51.6895C44.8003 52.2655 45.8858 52.715 46.9779 53.0221C46.665 51.9094 46.5 50.7897 46.5 50Z" fill="black"/>
<path d="M48.3105 44.0399C47.7345 44.8003 47.285 45.8858 46.9779 46.9779C48.0906 46.665 49.2103 46.5 50 46.5C50.7897 46.5 51.9094 46.665 53.0221 46.9779C52.715 45.8858 52.2655 44.8003 51.6895 44.0399C51.1407 44.0138 50.5781 44 50 44C49.4219 44 48.8593 44.0138 48.3105 44.0399Z" fill="black"/>
</svg>
