<svg width="48" height="48" viewBox="0 0 48 48" fill="none" xmlns="http://www.w3.org/2000/svg">
<path fill-rule="evenodd" clip-rule="evenodd" d="M24 0H20.64C20.64 0 23.04 7.28009 23.04 12C23.04 16.7199 21.12 19.2801 21.12 24C21.12 28.7199 23.04 31.2801 23.04 36C23.04 40.7199 20.64 48 20.64 48H24H27.36C27.36 48 24.96 40.7199 24.96 36C24.96 31.2801 26.88 28.7199 26.88 24C26.88 19.2801 24.96 16.7199 24.96 12C24.96 7.28009 27.36 0 27.36 0H24ZM24 20.64C22.9396 20.64 22.32 22.9396 22.32 24C22.32 25.0604 22.9396 27.36 24 27.36C25.0604 27.36 25.68 25.0604 25.68 24C25.68 22.9396 25.0604 20.64 24 20.64Z" fill="black"/>
</svg>
