<svg width="100" height="100" viewBox="0 0 100 100" fill="none" xmlns="http://www.w3.org/2000/svg">
<path fill-rule="evenodd" clip-rule="evenodd" d="M50 0H43C43 0 48 15.1668 48 25C48 34.8332 44 40.1668 44 50C44 59.8332 48 65.1668 48 75C48 84.8332 43 100 43 100H50H57C57 100 52 84.8332 52 75C52 65.1668 56 59.8332 56 50C56 40.1668 52 34.8332 52 25C52 15.1668 57 0 57 0H50ZM50 43C47.7909 43 46.5 47.7909 46.5 50C46.5 52.2091 47.7909 57 50 57C52.2091 57 53.5 52.2091 53.5 50C53.5 47.7909 52.2091 43 50 43Z" fill="black"/>
</svg>
