<svg width="200" height="200" viewBox="0 0 200 200" fill="none" xmlns="http://www.w3.org/2000/svg">
<path fill-rule="evenodd" clip-rule="evenodd" d="M100 0H86C86 0 96 30.3337 96 50C96 69.6663 88 80.3337 88 100C88 119.666 96 130.334 96 150C96 169.666 86 200 86 200H100H114C114 200 104 169.666 104 150C104 130.334 112 119.666 112 100C112 80.3337 104 69.6663 104 50C104 30.3337 114 0 114 0H100ZM100 86C95.5817 86 93 95.5817 93 100C93 104.418 95.5817 114 100 114C104.418 114 107 104.418 107 100C107 95.5817 104.418 86 100 86Z" fill="black"/>
</svg>
