<svg width="200" height="200" viewBox="0 0 200 200" fill="none" xmlns="http://www.w3.org/2000/svg">
<g clip-path="url(#clip0_8_10)">
<path d="M84 162C84 162 84 169.5 116 169.5C116 180.5 116 200 116 200H84V162Z" fill="white" fill-opacity="0.8"/>
<path d="M84.5 199.5V163.963C85.1296 164.65 86.1466 165.433 87.7878 166.203C91.8453 168.105 99.8081 169.961 115.5 169.999V170.022V170.088V170.154V170.22V170.287V170.354V170.421V170.488V170.555V170.623V170.69V170.758V170.826V170.894V170.963V171.031V171.1V171.169V171.238V171.307V171.376V171.446V171.516V171.585V171.655V171.725V171.796V171.866V171.937V172.007V172.078V172.149V172.22V172.292V172.363V172.435V172.506V172.578V172.65V172.723V172.795V172.867V172.94V173.012V173.085V173.158V173.231V173.304V173.378V173.451V173.525V173.599V173.672V173.746V173.82V173.894V173.969V174.043V174.118V174.192V174.267V174.342V174.417V174.492V174.567V174.642V174.718V174.793V174.869V174.944V175.02V175.096V175.172V175.248V175.324V175.4V175.477V175.553V175.63V175.706V175.783V175.86V175.937V176.014V176.091V176.168V176.245V176.322V176.399V176.477V176.554V176.632V176.709V176.787V176.865V176.943V177.021V177.099V177.177V177.255V177.333V177.411V177.489V177.568V177.646V177.724V177.803V177.881V177.96V178.038V178.117V178.196V178.275V178.353V178.432V178.511V178.59V178.669V178.748V178.827V178.906V178.985V179.065V179.144V179.223V179.302V179.381V179.461V179.54V179.619V179.699V179.778V179.858V179.937V180.016V180.096V180.175V180.255V180.334V180.414V180.493V180.573V180.653V180.732V180.812V180.891V180.971V181.05V181.13V181.21V181.289V181.369V181.448V181.528V181.607V181.687V181.766V181.846V181.925V182.005V182.084V182.164V182.243V182.323V182.402V182.482V182.561V182.64V182.72V182.799V182.878V182.957V183.037V183.116V183.195V183.274V183.353V183.432V183.511V183.59V183.669V183.748V183.827V183.906V183.984V184.063V184.142V184.22V184.299V184.377V184.456V184.534V184.613V184.691V184.769V184.847V184.926V185.004V185.082V185.16V185.237V185.315V185.393V185.471V185.548V185.626V185.703V185.781V185.858V185.935V186.012V186.089V186.166V186.243V186.32V186.397V186.474V186.55V186.627V186.703V186.779V186.856V186.932V187.008V187.084V187.16V187.235V187.311V187.387V187.462V187.537V187.613V187.688V187.763V187.838V187.913V187.987V188.062V188.136V188.211V188.285V188.359V188.433V188.507V188.581V188.655V188.728V188.802V188.875V188.948V189.021V189.094V189.167V189.24V189.312V189.385V189.457V189.529V189.601V189.673V189.744V189.816V189.887V189.959V190.03V190.101V190.172V190.242V190.313V190.383V190.454V190.524V190.594V190.663V190.733V190.803V190.872V190.941V191.01V191.079V191.147V191.216V191.284V191.352V191.42V191.488V191.556V191.623V191.691V191.758V191.825V191.891V191.958V192.024V192.091V192.157V192.223V192.288V192.354V192.419V192.484V192.549V192.614V192.678V192.743V192.807V192.871V192.934V192.998V193.061V193.124V193.187V193.25V193.313V193.375V193.437V193.499V193.561V193.622V193.683V193.744V193.805V193.866V193.926V193.986V194.046V194.106V194.165V194.225V194.284V194.343V194.401V194.46V194.518V194.576V194.633V194.691V194.748V194.805V194.862V194.918V194.974V195.03V195.086V195.142V195.197V195.252V195.307V195.361V195.415V195.469V195.523V195.577V195.63V195.683V195.736V195.788V195.84V195.892V195.944V195.995V196.047V196.098V196.148V196.199V196.249V196.298V196.348V196.397V196.446V196.495V196.543V196.591V196.639V196.687V196.734V196.781V196.828V196.874V196.921V196.966V197.012V197.057V197.102V197.147V197.191V197.235V197.279V197.323V197.366V197.409V197.451V197.494V197.536V197.577V197.619V197.66V197.701V197.741V197.781V197.821V197.86V197.9V197.938V197.977V198.015V198.053V198.091V198.128V198.165V198.201V198.238V198.274V198.309V198.344V198.379V198.414V198.448V198.482V198.516V198.549V198.582V198.614V198.647V198.679V198.71V198.741V198.772V198.803V198.833V198.863V198.892V198.921V198.95V198.978V199.006V199.034V199.061V199.088V199.114V199.141V199.166V199.192V199.217V199.242V199.266V199.29V199.314V199.337V199.36V199.382V199.404V199.426V199.447V199.468V199.489V199.5H84.5Z" stroke="white" stroke-opacity="0.8"/>
<path d="M116 38C116 38 116 30.5 84 30.5C84 19.5 84 0 84 0L116 0V38Z" fill="white" fill-opacity="0.8"/>
<path d="M115.5 0.5V36.0371C114.87 35.3502 113.853 34.5666 112.212 33.7973C108.155 31.8953 100.192 30.0392 84.5 30.0006V29.9783V29.9122V29.846V29.7795V29.7129V29.6461V29.5792V29.512V29.4447V29.3772V29.3095V29.2417V29.1737V29.1055V29.0372V28.9687V28.9V28.8311V28.7621V28.693V28.6236V28.5541V28.4845V28.4147V28.3447V28.2746V28.2043V28.1339V28.0634V27.9926V27.9218V27.8507V27.7796V27.7083V27.6368V27.5652V27.4935V27.4216V27.3496V27.2775V27.2052V27.1328V27.0602V26.9876V26.9147V26.8418V26.7687V26.6955V26.6222V26.5488V26.4752V26.4015V26.3277V26.2538V26.1797V26.1055V26.0312V25.9569V25.8823V25.8077V25.733V25.6581V25.5832V25.5081V25.433V25.3577V25.2823V25.2069V25.1313V25.0556V24.9798V24.904V24.828V24.7519V24.6758V24.5995V24.5232V24.4468V24.3703V24.2937V24.217V24.1402V24.0634V23.9864V23.9094V23.8323V23.7552V23.6779V23.6006V23.5232V23.4457V23.3682V23.2906V23.2129V23.1351V23.0573V22.9794V22.9015V22.8235V22.7454V22.6672V22.5891V22.5108V22.4325V22.3541V22.2757V22.1972V22.1187V22.0401V21.9615V21.8828V21.8041V21.7254V21.6465V21.5677V21.4888V21.4099V21.3309V21.2519V21.1728V21.0937V21.0146V20.9355V20.8563V20.7771V20.6978V20.6186V20.5393V20.4599V20.3806V20.3012V20.2218V20.1424V20.063V19.9835V19.9041V19.8246V19.7451V19.6656V19.5861V19.5065V19.427V19.3474V19.2679V19.1883V19.1087V19.0292V18.9496V18.87V18.7905V18.7109V18.6313V18.5518V18.4722V18.3927V18.3131V18.2336V18.1541V18.0746V17.9951V17.9156V17.8361V17.7567V17.6772V17.5978V17.5184V17.4391V17.3597V17.2804V17.2011V17.1218V17.0426V16.9634V16.8842V16.8051V16.7259V16.6469V16.5678V16.4888V16.4098V16.3309V16.252V16.1732V16.0944V16.0156V15.9369V15.8582V15.7796V15.7011V15.6225V15.5441V15.4657V15.3873V15.309V15.2308V15.1526V15.0745V14.9964V14.9184V14.8404V14.7626V14.6848V14.607V14.5293V14.4517V14.3742V14.2967V14.2194V14.142V14.0648V13.9876V13.9106V13.8336V13.7566V13.6798V13.603V13.5264V13.4498V13.3733V13.2969V13.2205V13.1443V13.0682V12.9921V12.9162V12.8403V12.7646V12.6889V12.6134V12.5379V12.4625V12.3873V12.3121V12.2371V12.1622V12.0873V12.0126V11.938V11.8635V11.7891V11.7149V11.6407V11.5667V11.4928V11.419V11.3453V11.2717V11.1983V11.125V11.0518V10.9788V10.9058V10.8331V10.7604V10.6879V10.6155V10.5432V10.4711V10.3991V10.3272V10.2555V10.1839V10.1125V10.0412V9.97009V9.8991V9.82825V9.75755V9.687V9.6166V9.54636V9.47626V9.40633V9.33654V9.26692V9.19745V9.12815V9.059V8.99002V8.92119V8.85254V8.78405V8.71573V8.64757V8.57959V8.51177V8.44413V8.37667V8.30937V8.24225V8.17531V8.10855V8.04197V7.97557V7.90935V7.84332V7.77747V7.7118V7.64632V7.58104V7.51594V7.45103V7.38631V7.32179V7.25746V7.19333V7.12939V7.06566V7.00212V6.93879V6.87565V6.81273V6.75V6.68748V6.62517V6.56307V6.50117V6.43949V6.37802V6.31676V6.25572V6.1949V6.13429V6.0739V6.01373V5.95378V5.89405V5.83455V5.77527V5.71622V5.65739V5.59879V5.54043V5.48229V5.42439V5.36671V5.30928V5.25208V5.19512V5.13839V5.08191V5.02567V4.96967V4.91391V4.8584V4.80313V4.74811V4.69334V4.63882V4.58455V4.53054V4.47677V4.42326V4.37001V4.31702V4.26428V4.2118V4.15958V4.10763V4.05594V4.00452V3.95336V3.90247V3.85184V3.80149V3.75141V3.7016V3.65206V3.6028V3.55381V3.5051V3.45668V3.40853V3.36066V3.31307V3.26577V3.21875V3.17202V3.12557V3.07942V3.03355V2.98798V2.9427V2.89771V2.85301V2.80861V2.76451V2.72071V2.67721V2.63401V2.59111V2.54852V2.50623V2.46424V2.42257V2.3812V2.34014V2.29939V2.25896V2.21884V2.17903V2.13954V2.10037V2.06152V2.02298V1.98477V1.94688V1.90931V1.87207V1.83516V1.79856V1.76231V1.72638V1.69078V1.65551V1.62058V1.58598V1.55172V1.5178V1.48421V1.45097V1.41806V1.3855V1.35328V1.32141V1.28988V1.25871V1.22787V1.1974V1.16726V1.13749V1.10806V1.07899V1.05028V1.02193V0.993931V0.966297V0.939022V0.912109V0.885559V0.859375V0.833557V0.808105V0.783024V0.758316V0.733974V0.710007V0.686413V0.663193V0.64035V0.617886V0.595798V0.574093V0.552765V0.531822V0.511265V0.5L115.5 0.5Z" stroke="white" stroke-opacity="0.8"/>
<path d="M116 23.5C112.5 23.5 109.5 24.5854 106.1 25.8057C101.037 27.6228 96.4091 30.409 92.4799 34.0054C88.5507 37.6018 85.3974 41.9379 83.2 46.7661C81.0025 51.5943 79.804 56.82 79.6728 62.145C79.5416 67.4699 80.4803 72.7898 82.4354 77.8008C84.3904 82.8119 87.3235 87.4159 91.0671 91.3502C94.8108 95.2844 99.2917 98.4718 104.254 100.73" stroke="white" stroke-opacity="0.8" stroke-width="32"/>
<path d="M84 178C89 178 96.7181 177.186 101.686 175.326C106.654 173.466 111.207 170.645 115.085 167.026C118.962 163.406 122.089 159.058 124.287 154.23C126.484 149.401 127.709 144.188 127.892 138.886C128.074 133.584 127.211 128.299 125.35 123.331C123.49 118.363 120.67 113.81 117.05 109.932C113.43 106.055 109.082 102.928 104.254 100.73" stroke="white" stroke-opacity="0.8" stroke-width="32"/>
</g>
<defs>
<clipPath id="clip0_8_10">
<rect width="200" height="200" fill="white"/>
</clipPath>
</defs>
</svg>
