<svg width="48" height="48" viewBox="0 0 48 48" fill="none" xmlns="http://www.w3.org/2000/svg">
<g id="Frame 1">
<path id="Vector (Stroke)" d="M36.5 23.6098C36.5 28.8074 33.2571 33.2321 28.7157 34.9522C28.7082 34.9539 28.6983 34.9561 28.6856 34.9588C28.6467 34.9671 28.599 34.9764 28.5188 34.9916C28.5088 34.9935 28.498 34.9955 28.4864 34.9977C28.4175 35.0106 28.3222 35.0286 28.2279 35.0476C27.7504 35.1437 26.9587 35.328 26.1043 35.8351C25.4368 36.2312 24.9113 36.7363 24.5 37.3014C24.0887 36.7363 23.5632 36.2312 22.8957 35.8351C22.0413 35.328 21.2496 35.1437 20.7721 35.0476C20.6778 35.0286 20.5825 35.0106 20.5136 34.9977C20.502 34.9955 20.4912 34.9935 20.4812 34.9916C20.401 34.9764 20.3533 34.9671 20.3144 34.9588C20.3017 34.9561 20.2918 34.9539 20.2844 34.9522C15.7429 33.2321 12.5 28.8074 12.5 23.6098C12.5 17.818 16.526 12.9919 21.8768 11.7894C22.7179 11.6004 23.5953 11.5 24.5 11.5C25.4047 11.5 26.2821 11.6004 27.1232 11.7894C32.474 12.9919 36.5 17.818 36.5 23.6098Z" stroke="black" stroke-width="7"/>
</g>
</svg>
