<svg width="200" height="200" viewBox="0 0 200 200" fill="none" xmlns="http://www.w3.org/2000/svg">
<g id="one">
<path id="Vector (Stroke)" d="M112.5 99.6098C112.5 104.807 109.257 109.232 104.716 110.952C104.708 110.954 104.698 110.956 104.686 110.959C104.647 110.967 104.599 110.976 104.519 110.992C104.509 110.993 104.498 110.995 104.486 110.998C104.418 111.011 104.322 111.029 104.228 111.048C103.75 111.144 102.959 111.328 102.104 111.835C101.437 112.231 100.911 112.736 100.5 113.301C100.089 112.736 99.5632 112.231 98.8957 111.835C98.0413 111.328 97.2496 111.144 96.7721 111.048C96.6778 111.029 96.5825 111.011 96.5136 110.998C96.502 110.995 96.4912 110.993 96.4812 110.992C96.401 110.976 96.3533 110.967 96.3144 110.959C96.3017 110.956 96.2918 110.954 96.2844 110.952C91.7429 109.232 88.5 104.807 88.5 99.6098C88.5 93.818 92.526 88.9919 97.8768 87.7894C98.7179 87.6004 99.5953 87.5 100.5 87.5C101.405 87.5 102.282 87.6004 103.123 87.7894C108.474 88.9919 112.5 93.818 112.5 99.6098Z" stroke="black" stroke-width="7"/>
</g>
</svg>
