<svg width="200" height="200" viewBox="0 0 200 200" fill="none" xmlns="http://www.w3.org/2000/svg">
<g id="one" clip-path="url(#clip0_1_2)">
<path id="Vector" fill-rule="evenodd" clip-rule="evenodd" d="M40 100.5C40 67.0868 67.0868 40 100.5 40C133.913 40 161 67.0868 161 100.5C161 132.474 136.197 158.655 104.781 160.851C104.189 179.5 114 200 114 200H86C86 200 95.8109 179.5 95.2287 160.774C64.2838 158.103 40 132.137 40 100.5ZM100 55C75.1472 55 55 75.1472 55 100C55 123.44 72.9221 142.695 95.8109 144.808C98.5 144.808 97.3946 150 100 150C102.605 150 101.5 144.808 104.189 144.808C127.078 142.695 145 123.44 145 100C145 75.1472 124.853 55 100 55Z" fill="black"/>
</g>
<defs>
<clipPath id="clip0_1_2">
<rect width="200" height="200" fill="white"/>
</clipPath>
</defs>
</svg>
