<svg width="100" height="100" viewBox="0 0 100 100" fill="none" xmlns="http://www.w3.org/2000/svg">
<g id="one">
<path id="Vector (Stroke)" d="M62.5 49.6098C62.5 54.8074 59.2571 59.2321 54.7157 60.9522C54.7082 60.9539 54.6983 60.9561 54.6856 60.9588C54.6467 60.9671 54.599 60.9764 54.5188 60.9916C54.5088 60.9935 54.498 60.9955 54.4864 60.9977C54.4175 61.0106 54.3222 61.0286 54.2279 61.0476C53.7504 61.1437 52.9587 61.328 52.1043 61.8351C51.4368 62.2312 50.9113 62.7363 50.5 63.3014C50.0887 62.7363 49.5632 62.2312 48.8957 61.8351C48.0413 61.328 47.2496 61.1437 46.7721 61.0476C46.6778 61.0286 46.5825 61.0106 46.5136 60.9977C46.502 60.9955 46.4912 60.9935 46.4812 60.9916C46.401 60.9764 46.3533 60.9671 46.3144 60.9588C46.3017 60.9561 46.2918 60.9539 46.2844 60.9522C41.7429 59.2321 38.5 54.8074 38.5 49.6098C38.5 43.818 42.526 38.9919 47.8768 37.7894C48.7179 37.6004 49.5953 37.5 50.5 37.5C51.4047 37.5 52.2821 37.6004 53.1232 37.7894C58.474 38.9919 62.5 43.818 62.5 49.6098Z" stroke="black" stroke-width="7"/>
</g>
</svg>
