<svg width="100" height="100" viewBox="0 0 100 100" fill="none" xmlns="http://www.w3.org/2000/svg">
<g id="one" clip-path="url(#clip0_1_2)">
<path id="Vector" fill-rule="evenodd" clip-rule="evenodd" d="M20 50.25C20 33.5434 33.5434 20 50.25 20C66.9566 20 80.5 33.5434 80.5 50.25C80.5 66.2369 68.0983 79.3273 52.3906 80.4254C52.0946 89.75 57 100 57 100H43C43 100 47.9054 89.75 47.6143 80.3868C32.1419 79.0513 20 66.0686 20 50.25ZM50 27.5C37.5736 27.5 27.5 37.5736 27.5 50C27.5 61.7202 36.4611 71.3473 47.9054 72.4038C49.25 72.4038 48.6973 75 50 75C51.3027 75 50.75 72.4038 52.0946 72.4038C63.5389 71.3473 72.5 61.7202 72.5 50C72.5 37.5736 62.4264 27.5 50 27.5Z" fill="black"/>
</g>
<defs>
<clipPath id="clip0_1_2">
<rect width="100" height="100" fill="white"/>
</clipPath>
</defs>
</svg>
