<svg width="48" height="48" viewBox="0 0 48 48" fill="none" xmlns="http://www.w3.org/2000/svg">
<g id="one" clip-path="url(#clip0_1_2)">
<path id="Vector" fill-rule="evenodd" clip-rule="evenodd" d="M9.60001 24.12C9.60001 16.1008 16.1008 9.60001 24.12 9.60001C32.1392 9.60001 38.64 16.1008 38.64 24.12C38.64 31.7937 32.6872 38.0771 25.1475 38.6042C25.0054 43.08 27.36 48 27.36 48H20.64C20.64 48 22.9946 43.08 22.8549 38.5857C15.4281 37.9446 9.60001 31.7129 9.60001 24.12ZM24 13.2C18.0353 13.2 13.2 18.0353 13.2 24C13.2 29.6257 17.5013 34.2467 22.9946 34.7538C23.64 34.7538 23.3747 36 24 36C24.6253 36 24.36 34.7538 25.0054 34.7538C30.4987 34.2467 34.8 29.6257 34.8 24C34.8 18.0353 29.9647 13.2 24 13.2Z" fill="black"/>
</g>
<defs>
<clipPath id="clip0_1_2">
<rect width="48" height="48" fill="white"/>
</clipPath>
</defs>
</svg>
